<svg xmlns="http://www.w3.org/2000/svg" width="198" height="40" viewBox="0 0 198 40" fill="none"><path d="M58.9324 28.3984H54.1637V25.3379H64.3417V21.708H52.8114C52.1709 21.708 51.5303 21.9215 51.0321 22.3486C50.5338 22.8468 50.178 23.4874 50.178 24.1991V39.9998H58.8612C63.3452 39.9998 65.7652 37.6511 65.7652 34.2347C65.8363 30.8895 63.4164 28.3984 58.9324 28.3984ZM58.9324 36.2988H54.1637V32.0995H58.9324C61.1388 32.0995 61.9217 32.6689 61.9217 34.2347C61.8506 35.7294 61.1388 36.2988 58.9324 36.2988Z" fill="white"></path><path d="M87.8291 21.6377C86.4768 21.6377 85.338 22.7765 85.338 24.1288V39.9295H89.2526V25.3388H95.1601C95.516 25.3388 95.943 25.3388 96.2989 25.2676C96.37 25.2676 96.5124 25.2676 96.5836 25.2676C96.6547 25.2676 96.7259 25.2676 96.7971 25.1964C96.9394 25.1252 97.0818 25.0541 97.2241 24.9829C97.5088 24.8405 97.7935 24.627 98.0071 24.4135C98.2206 24.2 98.3629 23.9153 98.5053 23.5594C98.5764 23.3459 98.6476 23.0612 98.6476 22.7765V21.6377H87.8291Z" fill="white"></path><path d="M0 26.1918V39.9284H13.8078C16.3701 39.9284 18.4342 37.8644 18.4342 35.2309V21.5654H4.62633C2.06406 21.5654 0 23.6295 0 26.1918Z" fill="white"></path><path d="M20.9965 5.19556V18.9322H34.8043C37.3666 18.9322 39.4306 16.8682 39.4306 14.2347V0.498047H25.694C23.1317 0.498047 20.9965 2.63328 20.9965 5.19556Z" fill="white"></path><path d="M1.56583 17.7934C9.67971 16.6546 16.0854 10.3201 17.4377 2.27741C16.5836 1.20979 15.3025 0.498047 13.8078 0.498047H0V14.2347C0 15.6582 0.640567 16.9393 1.56583 17.7934Z" fill="white"></path><path d="M7.18872 18.9321H7.47342H18.4343V8.25592V7.68652C16.3702 12.8111 12.3133 16.9392 7.18872 18.9321Z" fill="white"></path><path d="M58.6477 15.8007C56.0854 15.8007 54.9467 15.089 54.1637 12.1708H50.2491C50.8897 16.7971 53.5232 19.3594 58.6477 19.3594C64.2705 19.3594 66.8328 16.8683 66.8328 13.5943C66.8328 11.7438 65.9787 10.2491 63.9146 9.39502C65.6228 8.46975 66.4057 7.04626 66.4057 5.33808C66.4057 2.4911 64.2705 0 58.7189 0C54.3061 0 51.2456 2.56228 50.605 7.18861H54.5196C54.8755 4.41281 56.5837 3.55872 58.7189 3.55872C61.637 3.55872 62.4911 4.27046 62.4911 5.90747C62.4911 7.40214 61.2812 7.97153 58.7189 7.97153H56.0854V11.3879H58.7189C62.0641 11.3879 62.9894 11.9573 62.9894 13.3096C62.847 15.0178 61.7082 15.8007 58.6477 15.8007Z" fill="white"></path><path d="M71.0319 18.8611L72.5266 15.0177H80.854L82.3487 18.8611H86.6191L81.9928 7.47325L79.2882 0.854032L79.1458 0.569336H79.0746H78.7188C78.6476 0.569336 78.5764 0.569336 78.5052 0.569336H78.4341C78.3629 0.569336 78.3629 0.569336 78.2917 0.569336C78.2205 0.569336 78.1494 0.569336 78.0782 0.569336C77.9359 0.569336 77.7935 0.569336 77.6512 0.569336H77.58C77.5088 0.569336 77.5088 0.569336 77.4376 0.569336H77.3665C77.1529 0.569336 76.9394 0.569335 76.7259 0.640509C76.7259 0.640509 76.7259 0.640509 76.6547 0.640509C76.4412 0.711684 76.2277 0.711684 76.0141 0.782859C75.943 0.782859 75.943 0.782857 75.8718 0.854032C75.7294 0.925206 75.5159 0.99638 75.3736 1.06755H75.3024C75.0889 1.13873 74.9465 1.28108 74.8042 1.35225C74.733 1.35225 74.733 1.42343 74.6618 1.42343C74.5195 1.4946 74.3771 1.63695 74.2348 1.7793L74.1636 1.85047C74.0213 1.99282 73.8789 2.13517 73.7366 2.27752C73.7366 2.34869 73.6654 2.34869 73.6654 2.41987C73.5942 2.56222 73.4519 2.70456 73.3807 2.84691L73.3095 2.91809C73.2383 3.06044 73.096 3.27396 73.0248 3.41631L66.7615 18.79H71.0319V18.8611ZM74.8754 9.03909L76.7259 4.41275L78.7899 9.67965L79.4305 11.3167H74.0213L74.8754 9.03909Z" fill="white"></path><path d="M132.313 15.16H131.744V0.498047H121.352C121.139 0.498047 120.996 0.498049 120.783 0.569223C120.569 0.569223 120.356 0.640395 120.071 0.711569C119.715 0.782744 119.431 0.925093 119.075 1.06744C118.79 1.20979 118.505 1.42331 118.221 1.56566C117.936 1.77919 117.722 1.99271 117.509 2.20623C117.295 2.41976 117.082 2.70445 116.939 2.98915C116.797 3.27385 116.655 3.55854 116.584 3.91442C116.441 4.27029 116.37 4.69733 116.37 5.12438V12.9536V13.3806V13.6653V13.7365C116.37 13.8077 116.37 13.8788 116.37 13.95C116.37 14.0924 116.37 14.1635 116.299 14.3059C116.299 14.377 116.228 14.5194 116.228 14.5906C116.157 14.7329 116.157 14.9464 116.157 15.0888H113.452V18.7187H131.459H134.875V17.5087C134.875 15.9429 133.95 15.16 132.313 15.16ZM127.758 15.16H119.644C119.715 14.8041 119.715 14.3059 119.786 13.8077C119.858 12.8112 119.929 11.6012 120 10.3201V9.60837V6.69022C120 6.40552 120.071 6.192 120.142 5.97847C120.427 4.98203 121.423 4.19911 122.491 4.19911H127.758V15.16Z" fill="white"></path><path d="M104.911 0.498047H101.423C100.569 0.498047 99.8575 0.925093 99.3593 1.56566L96.0141 6.33435L92.6689 1.56566C92.2419 0.925093 91.4589 0.498047 90.6048 0.498047H87.1173L93.7365 9.67954L87.1173 18.861H91.9572L96.0853 12.9536L100.213 18.861H105.053L98.434 9.67954L104.911 0.498047Z" fill="white"></path><path d="M109.609 0.498047C108.185 0.498047 107.117 1.63684 107.117 2.98915V18.7899H108.541C108.612 18.7899 108.754 18.7899 108.826 18.7899C108.897 18.7899 108.897 18.7899 108.968 18.7899C109.039 18.7899 109.11 18.7899 109.181 18.7899C109.253 18.7899 109.395 18.7187 109.466 18.7187C109.537 18.7187 109.537 18.6475 109.609 18.6475C109.68 18.5763 109.822 18.5763 109.893 18.5052L109.964 18.434C110.107 18.3628 110.178 18.2205 110.32 18.1493L110.391 18.0781C110.463 18.0069 110.534 17.9358 110.605 17.7934C110.605 17.7222 110.676 17.7222 110.676 17.6511C110.747 17.5799 110.747 17.5087 110.819 17.3664C110.89 17.1529 110.961 16.9393 111.032 16.7258C111.032 16.5835 111.032 16.5123 111.032 16.3699C111.032 16.2988 111.032 16.2276 111.032 16.1564V15.7294V0.996268V0.569223L109.609 0.498047C109.68 0.498047 109.68 0.498047 109.609 0.498047Z" fill="white"></path><path d="M173.025 0.569223C172.812 0.569223 172.527 0.569222 172.313 0.640396C172.1 0.640396 171.886 0.711571 171.602 0.782745C171.53 0.782745 171.459 0.853919 171.388 0.853919C171.032 0.996268 170.676 1.13862 170.392 1.28097C170.107 1.49449 169.822 1.70801 169.538 1.92153C169.395 1.99271 169.324 2.13506 169.182 2.27741C169.039 2.41976 168.897 2.56211 168.826 2.70445C168.683 2.91798 168.612 3.06033 168.47 3.27385C168.399 3.34502 161.993 14.6617 161.993 14.6617V0.498047H160.57C159.217 0.498047 158.15 1.63684 158.15 2.98915V18.7899H163.915L171.886 4.69734V18.7899H175.801V0.498047C175.587 0.498047 173.167 0.498049 173.025 0.569223Z" fill="white"></path><path d="M153.025 0.498047C151.673 0.498047 150.605 1.56566 150.534 2.91798V2.98915V3.06033V7.82901H141.139V0.498047H139.715C138.363 0.498047 137.224 1.63684 137.224 2.98915V18.7899H141.139V11.5301H150.534V18.861H154.448V0.498047H153.025Z" fill="white"></path><path d="M186.548 4.12783C186.619 4.12783 186.619 4.12783 186.691 4.12783C186.762 4.12783 186.833 4.12783 186.904 4.12783C186.975 4.12783 187.118 4.05665 187.189 4.05665C187.26 4.05665 187.26 3.98548 187.331 3.98548C187.402 3.9143 187.545 3.9143 187.616 3.84313L187.687 3.77195C187.829 3.70078 187.9 3.55843 188.043 3.48726L188.114 3.41608C188.185 3.34491 188.256 3.27373 188.328 3.13138C188.328 3.06021 188.399 3.06021 188.399 2.98903C188.47 2.91786 188.47 2.84669 188.541 2.70434C188.612 2.49082 188.683 2.27729 188.755 2.06377C188.755 1.92142 188.755 1.85024 188.755 1.7079C188.755 1.63672 188.755 1.56555 188.755 1.49437V1.06733V0.426758H184.84V3.6296V4.199H186.263C186.406 4.199 186.477 4.12783 186.548 4.12783Z" fill="white"></path><path d="M194.377 0.569223C194.164 0.569223 193.879 0.569222 193.666 0.640396C193.452 0.640396 193.239 0.711571 192.954 0.782745C192.883 0.782745 192.812 0.853919 192.74 0.853919C192.385 0.996268 192.029 1.13862 191.744 1.28097C191.459 1.49449 191.175 1.70801 190.89 1.92153C190.748 1.99271 190.676 2.13506 190.534 2.27741C190.392 2.41976 190.249 2.56211 190.178 2.70445C190.036 2.91798 189.965 3.06033 189.822 3.27385C189.751 3.34502 183.345 14.6617 183.345 14.6617V0.498047H181.922C180.57 0.498047 179.502 1.63684 179.502 2.98915V18.7899H185.267L193.239 4.69734V18.7899H197.153V0.498047C196.868 0.498047 194.449 0.498049 194.377 0.569223Z" fill="white"></path><path d="M84.0569 21.4949H81.8505C81.637 21.4949 81.4235 21.4949 81.2099 21.4949C81.1388 21.4949 81.0676 21.4949 80.9252 21.4949C80.8541 21.4949 80.7829 21.5661 80.7117 21.5661C80.7117 21.5661 80.7117 21.5661 80.6405 21.5661C80.3558 21.6372 80.1423 21.7796 79.8576 21.9931C79.6441 22.1355 79.4306 22.349 79.2171 22.5625C79.0035 22.8472 75.6583 29.8223 75.6583 29.8223L71.459 22.4913L71.3879 22.4202C71.1743 22.1355 70.8897 21.9219 70.5338 21.7084C70.4626 21.6372 70.3914 21.6372 70.2491 21.5661C69.9644 21.4949 69.6797 21.4237 69.395 21.3525C69.2526 21.3525 69.0391 21.3525 68.8968 21.3525H68.6832H66.1921L73.5943 33.8081C73.4519 34.1639 73.2384 34.4486 73.0961 34.7333C72.8825 35.0892 72.669 35.4451 72.3843 35.7298C71.9573 36.0856 71.459 36.228 70.8897 36.228H69.4662V39.7867H71.032C71.2455 39.7867 71.3879 39.7867 71.6014 39.7867C71.8149 39.7867 71.9573 39.7867 72.1708 39.7867C72.4555 39.7867 72.7402 39.7155 73.0249 39.6444C73.8078 39.4308 74.5195 39.075 75.0889 38.5056C75.516 38.1497 75.8719 37.7226 76.0854 37.2244C76.2989 37.0109 84.0569 21.4949 84.0569 21.4949Z" fill="white"></path></svg>