<svg width="128" height="129" viewBox="0 0 128 129" fill="none" xmlns="http://www.w3.org/2000/svg">
<path d="M0 83.906V128.498H44.8224C53.14 128.498 59.8404 121.798 59.8404 113.249V68.8877H15.0178C6.70028 68.8877 0 75.5882 0 83.906Z" fill="#2C6C20"/>
<path d="M68.1602 15.7472V60.3395H112.983C121.3 60.3395 128 53.6393 128 45.0904V0.498047H83.409C75.0914 0.498047 68.1602 7.4295 68.1602 15.7472Z" fill="#2C6C20"/>
<path d="M5.08294 56.6427C31.4219 52.9459 52.2158 32.3827 56.6056 6.27426C53.8331 2.80853 49.6744 0.498047 44.8224 0.498047H0V45.0904C0 49.7114 2.07938 53.8701 5.08294 56.6427Z" fill="#2C6C20"/>
<path d="M23.335 60.3392H24.2591H59.8398V25.6819V23.8335C53.1397 40.469 39.97 53.8698 23.335 60.3392Z" fill="#2C6C20"/>
</svg>
