<svg width="198" height="40" viewBox="0 0 198 40" fill="none" xmlns="http://www.w3.org/2000/svg">
<path d="M58.9322 28.3984H54.1635V25.3379H64.3414V21.708H52.8112C52.1706 21.708 51.53 21.9215 51.0318 22.3486C50.5336 22.8468 50.1777 23.4874 50.1777 24.1991V39.9998H58.861C63.345 39.9998 65.7649 37.6511 65.7649 34.2347C65.8361 30.8895 63.4162 28.3984 58.9322 28.3984ZM58.9322 36.2988H54.1635V32.0995H58.9322C61.1386 32.0995 61.9215 32.6689 61.9215 34.2347C61.8503 35.7294 61.1386 36.2988 58.9322 36.2988Z" fill="#2C6C20"/>
<path d="M87.829 21.6377C86.4767 21.6377 85.3379 22.7765 85.3379 24.1288V39.9295H89.2525V25.3388H95.16C95.5158 25.3388 95.9429 25.3388 96.2987 25.2676C96.3699 25.2676 96.5123 25.2676 96.5834 25.2676C96.6546 25.2676 96.7258 25.2676 96.797 25.1964C96.9393 25.1252 97.0817 25.0541 97.224 24.9829C97.5087 24.8405 97.7934 24.627 98.0069 24.4135C98.2205 24.2 98.3628 23.9153 98.5051 23.5594C98.5763 23.3459 98.6475 23.0612 98.6475 22.7765V21.6377H87.829Z" fill="#2C6C20"/>
<path d="M0 26.1918V39.9284H13.8078C16.3701 39.9284 18.4342 37.8644 18.4342 35.2309V21.5654H4.62633C2.06406 21.5654 0 23.6295 0 26.1918Z" fill="#2C6C20"/>
<path d="M20.9966 5.19556V18.9322H34.8044C37.3667 18.9322 39.4307 16.8682 39.4307 14.2347V0.498047H25.6941C23.1318 0.498047 20.9966 2.63328 20.9966 5.19556Z" fill="#2C6C20"/>
<path d="M1.56583 17.7934C9.67971 16.6546 16.0854 10.3201 17.4377 2.27741C16.5836 1.20979 15.3025 0.498047 13.8078 0.498047H0V14.2347C0 15.6582 0.640567 16.9393 1.56583 17.7934Z" fill="#2C6C20"/>
<path d="M7.18848 18.9321H7.47318H18.434V8.25592V7.68652C16.37 12.8111 12.313 16.9392 7.18848 18.9321Z" fill="#2C6C20"/>
<path d="M58.6476 15.8007C56.0853 15.8007 54.9465 15.089 54.1636 12.1708H50.249C50.8896 16.7971 53.523 19.3594 58.6476 19.3594C64.2704 19.3594 66.8327 16.8683 66.8327 13.5943C66.8327 11.7438 65.9786 10.2491 63.9145 9.39502C65.6227 8.46975 66.4056 7.04626 66.4056 5.33808C66.4056 2.4911 64.2704 0 58.7188 0C54.306 0 51.2455 2.56228 50.6049 7.18861H54.5195C54.8754 4.41281 56.5835 3.55872 58.7188 3.55872C61.6369 3.55872 62.491 4.27046 62.491 5.90747C62.491 7.40214 61.2811 7.97153 58.7188 7.97153H56.0853V11.3879H58.7188C62.064 11.3879 62.9892 11.9573 62.9892 13.3096C62.8469 15.0178 61.7081 15.8007 58.6476 15.8007Z" fill="#2C6C20"/>
<path d="M71.0317 18.8611L72.5264 15.0177H80.8538L82.3484 18.8611H86.6189L81.9926 7.47325L79.2879 0.854032L79.1456 0.569336H79.0744H78.7185C78.6474 0.569336 78.5762 0.569336 78.505 0.569336H78.4338C78.3627 0.569336 78.3627 0.569336 78.2915 0.569336C78.2203 0.569336 78.1491 0.569336 78.078 0.569336C77.9356 0.569336 77.7933 0.569336 77.6509 0.569336H77.5797C77.5086 0.569336 77.5086 0.569336 77.4374 0.569336H77.3662C77.1527 0.569336 76.9392 0.569335 76.7256 0.640509C76.7256 0.640509 76.7256 0.640509 76.6545 0.640509C76.441 0.711684 76.2274 0.711684 76.0139 0.782859C75.9427 0.782859 75.9427 0.782857 75.8716 0.854032C75.7292 0.925206 75.5157 0.99638 75.3733 1.06755H75.3022C75.0886 1.13873 74.9463 1.28108 74.8039 1.35225C74.7328 1.35225 74.7328 1.42343 74.6616 1.42343C74.5192 1.4946 74.3769 1.63695 74.2345 1.7793L74.1634 1.85047C74.021 1.99282 73.8787 2.13517 73.7363 2.27752C73.7363 2.34869 73.6651 2.34869 73.6651 2.41987C73.594 2.56222 73.4516 2.70456 73.3804 2.84691L73.3093 2.91809C73.2381 3.06044 73.0958 3.27396 73.0246 3.41631L66.7612 18.79H71.0317V18.8611ZM74.8751 9.03909L76.7256 4.41275L78.7897 9.67965L79.4303 11.3167H74.021L74.8751 9.03909Z" fill="#2C6C20"/>
<path d="M132.313 15.16H131.743V0.498047H121.352C121.138 0.498047 120.996 0.498049 120.783 0.569223C120.569 0.569223 120.356 0.640395 120.071 0.711569C119.715 0.782744 119.43 0.925093 119.074 1.06744C118.79 1.20979 118.505 1.42331 118.22 1.56566C117.936 1.77919 117.722 1.99271 117.509 2.20623C117.295 2.41976 117.082 2.70445 116.939 2.98915C116.797 3.27385 116.655 3.55854 116.583 3.91442C116.441 4.27029 116.37 4.69733 116.37 5.12438V12.9536V13.3806V13.6653V13.7365C116.37 13.8077 116.37 13.8788 116.37 13.95C116.37 14.0924 116.37 14.1635 116.299 14.3059C116.299 14.377 116.227 14.5194 116.227 14.5906C116.156 14.7329 116.156 14.9464 116.156 15.0888H113.452V18.7187H131.459H134.875V17.5087C134.875 15.9429 133.95 15.16 132.313 15.16ZM127.758 15.16H119.644C119.715 14.8041 119.715 14.3059 119.786 13.8077C119.857 12.8112 119.929 11.6012 120 10.3201V9.60837V6.69022C120 6.40552 120.071 6.192 120.142 5.97847C120.427 4.98203 121.423 4.19911 122.491 4.19911H127.758V15.16Z" fill="#2C6C20"/>
<path d="M104.911 0.498047H101.423C100.569 0.498047 99.8574 0.925093 99.3592 1.56566L96.014 6.33435L92.6688 1.56566C92.2417 0.925093 91.4588 0.498047 90.6047 0.498047H87.1172L93.7364 9.67954L87.1172 18.861H91.957L96.0852 12.9536L100.213 18.861H105.053L98.4339 9.67954L104.911 0.498047Z" fill="#2C6C20"/>
<path d="M109.608 0.498047C108.185 0.498047 107.117 1.63684 107.117 2.98915V18.7899H108.541C108.612 18.7899 108.754 18.7899 108.825 18.7899C108.897 18.7899 108.897 18.7899 108.968 18.7899C109.039 18.7899 109.11 18.7899 109.181 18.7899C109.252 18.7899 109.395 18.7187 109.466 18.7187C109.537 18.7187 109.537 18.6475 109.608 18.6475C109.679 18.5763 109.822 18.5763 109.893 18.5052L109.964 18.434C110.107 18.3628 110.178 18.2205 110.32 18.1493L110.391 18.0781C110.462 18.0069 110.534 17.9358 110.605 17.7934C110.605 17.7222 110.676 17.7222 110.676 17.6511C110.747 17.5799 110.747 17.5087 110.818 17.3664C110.889 17.1529 110.961 16.9393 111.032 16.7258C111.032 16.5835 111.032 16.5123 111.032 16.3699C111.032 16.2988 111.032 16.2276 111.032 16.1564V15.7294V0.996268V0.569223L109.608 0.498047C109.679 0.498047 109.679 0.498047 109.608 0.498047Z" fill="#2C6C20"/>
<path d="M173.025 0.569223C172.811 0.569223 172.527 0.569222 172.313 0.640396C172.1 0.640396 171.886 0.711571 171.601 0.782745C171.53 0.782745 171.459 0.853919 171.388 0.853919C171.032 0.996268 170.676 1.13862 170.391 1.28097C170.107 1.49449 169.822 1.70801 169.537 1.92153C169.395 1.99271 169.324 2.13506 169.181 2.27741C169.039 2.41976 168.897 2.56211 168.826 2.70445C168.683 2.91798 168.612 3.06033 168.47 3.27385C168.399 3.34502 161.993 14.6617 161.993 14.6617V0.498047H160.569C159.217 0.498047 158.149 1.63684 158.149 2.98915V18.7899H163.915L171.886 4.69734V18.7899H175.801V0.498047C175.587 0.498047 173.167 0.498049 173.025 0.569223Z" fill="#2C6C20"/>
<path d="M153.025 0.498047C151.673 0.498047 150.605 1.56566 150.534 2.91798V2.98915V3.06033V7.82901H141.139V0.498047H139.715C138.363 0.498047 137.224 1.63684 137.224 2.98915V18.7899H141.139V11.5301H150.534V18.861H154.448V0.498047H153.025Z" fill="#2C6C20"/>
<path d="M186.548 4.12783C186.619 4.12783 186.619 4.12783 186.69 4.12783C186.762 4.12783 186.833 4.12783 186.904 4.12783C186.975 4.12783 187.117 4.05665 187.189 4.05665C187.26 4.05665 187.26 3.98548 187.331 3.98548C187.402 3.9143 187.544 3.9143 187.616 3.84313L187.687 3.77195C187.829 3.70078 187.9 3.55843 188.043 3.48726L188.114 3.41608C188.185 3.34491 188.256 3.27373 188.327 3.13138C188.327 3.06021 188.399 3.06021 188.399 2.98903C188.47 2.91786 188.47 2.84669 188.541 2.70434C188.612 2.49082 188.683 2.27729 188.754 2.06377C188.754 1.92142 188.754 1.85024 188.754 1.7079C188.754 1.63672 188.754 1.56555 188.754 1.49437V1.06733V0.426758H184.84V3.6296V4.199H186.263C186.406 4.199 186.477 4.12783 186.548 4.12783Z" fill="#2C6C20"/>
<path d="M194.377 0.569223C194.164 0.569223 193.879 0.569222 193.666 0.640396C193.452 0.640396 193.239 0.711571 192.954 0.782745C192.883 0.782745 192.812 0.853919 192.74 0.853919C192.385 0.996268 192.029 1.13862 191.744 1.28097C191.459 1.49449 191.175 1.70801 190.89 1.92153C190.748 1.99271 190.676 2.13506 190.534 2.27741C190.392 2.41976 190.249 2.56211 190.178 2.70445C190.036 2.91798 189.965 3.06033 189.822 3.27385C189.751 3.34502 183.345 14.6617 183.345 14.6617V0.498047H181.922C180.57 0.498047 179.502 1.63684 179.502 2.98915V18.7899H185.267L193.239 4.69734V18.7899H197.153V0.498047C196.868 0.498047 194.449 0.498049 194.377 0.569223Z" fill="#2C6C20"/>
<path d="M84.0572 21.4949H81.8507C81.6372 21.4949 81.4237 21.4949 81.2102 21.4949C81.139 21.4949 81.0678 21.4949 80.9255 21.4949C80.8543 21.4949 80.7831 21.5661 80.712 21.5661C80.712 21.5661 80.712 21.5661 80.6408 21.5661C80.3561 21.6372 80.1426 21.7796 79.8579 21.9931C79.6443 22.1355 79.4308 22.349 79.2173 22.5625C79.0038 22.8472 75.6586 29.8223 75.6586 29.8223L71.4593 22.4913L71.3881 22.4202C71.1746 22.1355 70.8899 21.9219 70.534 21.7084C70.4628 21.6372 70.3917 21.6372 70.2493 21.5661C69.9646 21.4949 69.6799 21.4237 69.3952 21.3525C69.2529 21.3525 69.0394 21.3525 68.897 21.3525H68.6835H66.1924L73.5945 33.8081C73.4522 34.1639 73.2387 34.4486 73.0963 34.7333C72.8828 35.0892 72.6693 35.4451 72.3846 35.7298C71.9575 36.0856 71.4593 36.228 70.8899 36.228H69.4664V39.7867H71.0322C71.2458 39.7867 71.3881 39.7867 71.6016 39.7867C71.8152 39.7867 71.9575 39.7867 72.171 39.7867C72.4557 39.7867 72.7404 39.7155 73.0251 39.6444C73.808 39.4308 74.5198 39.075 75.0892 38.5056C75.5162 38.1497 75.8721 37.7226 76.0856 37.2244C76.2992 37.0109 84.0572 21.4949 84.0572 21.4949Z" fill="#2C6C20"/>
</svg>
